# xmcd CD database file
#
# Track frame offsets:
#	150
#	16770
#	37403
#	43944
#	67736
#	80307
#	96177
#	108067
#	123152
#
# Disc length: 1782 seconds
#
# Revision: 1
# Processed by: cddbd v1.5.2PL0 Copyright (c) Steve Scherf et al.
# Submitted via: CDex 1.70beta3
#
DISCID=6706f409
DTITLE=Louis Armstrong - Mostly Blues
DYEAR=1938
DGENRE=Jazz
TTITLE0=Mostly Blues
TTITLE1=Tiger Rag
TTITLE2=Baby Won't You Please Come Home
TTITLE3=Storyville Blues
TTITLE4=Jeepers Creepers
TTITLE5=Do You Know What It Means To MissNew Orleans
TTITLE6=Brother Bill
TTITLE7=Rockin'Chair
TTITLE8=Way Down Yonder In New Orleans
EXTD=YEAR: 1938
EXTT0=
EXTT1=
EXTT2=
EXTT3=
EXTT4=
EXTT5=
EXTT6=
EXTT7=
EXTT8=
PLAYORDER=
